<svg version="1.1" id="Layer_1" xmlns="http://www.w3.org/2000/svg" xmlns:xlink="http://www.w3.org/1999/xlink" x="0px" y="0px"
	 width="100%" viewBox="0 0 512 512" enable-background="new 0 0 512 512" xml:space="preserve">
<path fill="#000000" opacity="1.000000" stroke="none" 
	d="
M302.670532,360.758850 
	C301.895660,343.455261 307.747009,329.308319 320.201019,318.014526 
	C322.581848,315.855499 321.813141,314.229004 320.799164,311.959686 
	C318.729370,307.327576 320.320679,302.425476 324.301208,300.312134 
	C328.264130,298.208130 333.527527,299.487915 336.272064,303.222870 
	C338.890503,306.786224 348.229614,306.491699 350.035950,302.333344 
	C351.823792,298.217407 354.699860,296.869659 358.583893,296.905884 
	C363.231506,296.949249 363.428528,294.437561 362.320221,291.043152 
	C361.021118,287.064331 358.028290,284.841675 354.215942,283.534912 
	C351.687958,282.668427 348.609955,282.022125 349.578613,278.339325 
	C350.629730,274.343018 354.095245,275.420227 356.645386,275.979950 
	C365.151947,277.847107 370.498749,283.448578 372.019470,291.810120 
	C372.933685,296.836914 373.983612,300.559570 379.671753,301.651947 
	C382.689880,302.231506 384.149323,304.897614 383.226624,307.813263 
	C382.136261,311.258606 383.740295,312.884460 386.151703,314.787750 
	C399.298859,325.164764 406.558746,338.820221 407.255127,355.528687 
	C408.154449,377.105957 396.206329,396.554199 377.706604,404.673737 
	C357.384155,413.593292 334.122223,409.478821 318.428772,394.320709 
	C309.019012,385.232025 304.207855,374.029358 302.670532,360.758850 
M392.003540,371.606140 
	C387.291779,380.711670 380.670654,388.166077 370.797058,394.346375 
	C381.969330,393.547577 394.305420,378.701782 394.169525,367.968964 
	C393.523956,369.037872 392.925293,370.029144 392.003540,371.606140 
M340.600342,325.750732 
	C342.569580,327.856689 344.809753,328.162201 347.252472,326.667694 
	C349.291412,325.420227 350.042206,323.530304 349.764191,321.193726 
	C349.499542,318.969482 348.123840,317.670898 346.124939,316.973358 
	C344.034729,316.243896 342.145172,316.917999 340.703979,318.377106 
	C338.711578,320.394287 338.831909,322.783051 340.600342,325.750732 
M323.598389,332.832977 
	C324.513824,337.466034 326.829285,339.300079 329.975250,337.865387 
	C331.815704,337.026031 332.734528,335.577454 332.723846,333.546387 
	C332.712677,331.415588 331.510254,330.130951 329.609528,329.571747 
	C327.015045,328.808441 325.098114,329.822876 323.598389,332.832977 
M331.801178,305.622284 
	C331.264099,305.241364 330.778229,304.710022 330.180756,304.506500 
	C328.034210,303.775452 326.256653,304.290131 325.055817,306.323486 
	C324.181519,307.803986 324.333160,309.194183 325.512085,310.425964 
	C326.787018,311.757996 328.413147,312.181396 330.083435,311.519958 
	C332.534882,310.549103 333.104706,308.637451 331.801178,305.622284 
M346.381439,343.087891 
	C346.345306,340.009125 344.670654,338.714478 341.874542,339.671265 
	C339.969238,340.323212 339.746033,342.236694 340.825134,343.845642 
	C342.546051,346.411621 344.387573,345.644592 346.381439,343.087891 
z"/>
<path fill="#000000" opacity="1.000000" stroke="none" 
	d="
M298.628174,89.567535 
	C303.604218,101.505577 307.657959,113.771973 318.046173,122.190262 
	C319.063477,123.014656 319.540833,123.934975 319.291077,125.211502 
	C318.973755,126.833183 317.782288,127.322701 316.344849,127.327583 
	C310.014252,127.349030 303.683502,127.321724 297.352814,127.332161 
	C295.101257,127.335869 294.336090,125.856781 293.552094,124.039543 
	C289.727020,115.173149 285.497650,106.470009 281.981781,97.485863 
	C280.096924,92.669426 276.602600,93.095917 273.027130,93.560661 
	C269.280121,94.047707 270.550934,97.315903 270.447266,99.590492 
	C270.288116,103.081802 270.565613,106.593819 270.387726,110.083282 
	C270.124878,115.239647 270.819275,119.757935 276.304962,122.066902 
	C277.587982,122.606949 278.401337,123.763252 278.061737,125.309875 
	C277.641602,127.223061 276.073914,127.352028 274.546387,127.355011 
	C265.549622,127.372612 256.552734,127.366310 247.555969,127.340530 
	C246.391632,127.337189 245.166946,127.281403 244.611374,125.944176 
	C244.004196,124.482742 244.523636,123.211693 245.694992,122.428177 
	C250.380661,119.293983 250.708954,114.630524 250.676712,109.619148 
	C250.570602,93.124954 250.597549,76.629623 250.644180,60.134930 
	C250.655121,56.264282 250.030579,52.841030 246.300232,50.728016 
	C244.976746,49.978340 243.629257,48.937855 244.123566,47.199112 
	C244.687363,45.215954 246.587036,45.118320 248.247192,45.125267 
	C258.570953,45.168446 268.892181,44.748703 279.220886,45.363850 
	C285.738678,45.752026 292.171356,46.277843 298.231873,48.904995 
	C310.248871,54.114212 315.717896,67.213753 310.609955,78.153267 
	C308.120087,83.485710 303.227966,86.100105 298.628174,89.567535 
M289.558472,61.020058 
	C286.054199,56.301186 280.927856,55.088688 275.517700,54.779472 
	C272.531738,54.608807 270.373871,55.809357 270.406982,59.367947 
	C270.470245,66.167831 270.443329,72.968704 270.426849,79.769104 
	C270.420929,82.201241 271.581390,83.600029 274.005829,83.550064 
	C279.930847,83.427940 285.825745,82.674164 289.608917,77.478233 
	C293.261627,72.461464 293.231567,66.990837 289.558472,61.020058 
z"/>
<path fill="#000000" opacity="1.000000" stroke="none" 
	d="
M216.882904,95.233871 
	C218.205093,91.334595 216.895950,88.680069 214.058640,86.619652 
	C212.703598,85.635628 211.983307,84.471115 212.489655,82.791412 
	C213.025192,81.014961 214.484924,80.707001 216.058411,80.701591 
	C221.058060,80.684387 226.057816,80.685303 231.057465,80.702393 
	C232.454681,80.707169 233.805267,81.009636 234.280182,82.527016 
	C234.706726,83.889885 234.467865,85.323204 233.204758,86.107513 
	C228.522949,89.014587 227.350830,93.933182 225.625931,98.626740 
	C224.367401,102.051270 222.944016,105.485260 221.059601,108.590683 
	C219.043152,111.913704 219.991257,113.707047 223.090729,115.305222 
	C225.867920,116.737221 228.742401,117.175911 231.798660,116.913277 
	C233.435425,116.772629 235.314377,116.326263 236.053604,118.428902 
	C236.659973,120.153671 235.876450,121.678123 234.799530,123.046715 
	C231.355682,127.423264 222.787598,130.114807 216.943298,126.833290 
	C210.217392,123.056747 204.627777,123.768860 197.926086,126.450409 
	C190.027008,129.611069 181.596649,129.224930 173.423370,126.523117 
	C164.320206,123.513901 158.088165,117.700653 156.720123,107.934402 
	C155.261673,97.522659 159.679642,88.705078 169.269638,83.982239 
	C174.199112,81.554604 175.089142,79.211258 172.742142,74.464783 
	C170.909851,70.759262 169.921722,66.603409 170.254044,62.355217 
	C171.096802,51.581936 179.135086,45.107727 191.906158,44.815884 
	C206.196976,44.489311 215.095261,52.687115 214.313354,65.572487 
	C213.870590,72.869072 209.100952,77.116692 203.393372,80.700790 
	C201.309433,82.009415 198.678085,82.383041 196.692444,84.711899 
	C200.860886,92.051010 206.588730,98.201401 212.022522,104.908234 
	C215.499161,102.389503 215.933807,98.888206 216.882904,95.233871 
M182.468933,93.166306 
	C180.918411,90.648491 179.382645,90.014977 177.162415,92.676331 
	C172.486816,98.280838 172.766434,106.920013 178.000839,112.191788 
	C183.899261,118.132301 193.591339,119.435982 199.311493,114.853806 
	C193.834961,107.816231 188.352722,100.771309 182.468933,93.166306 
M191.287460,76.100838 
	C199.348801,76.351227 204.590668,66.167435 200.504623,58.193928 
	C198.440720,54.166458 194.534653,52.330807 190.608871,53.543465 
	C187.082703,54.632683 184.795563,59.029385 185.750916,63.291634 
	C186.731308,67.665558 188.131760,71.907341 191.287460,76.100838 
z"/>
<path fill="#000000" opacity="1.000000" stroke="none" 
	d="
M130.511948,125.875259 
	C121.753265,129.035553 113.184067,129.483368 104.640480,126.986115 
	C96.366196,124.567581 91.772667,116.928879 93.587021,109.358757 
	C94.693581,104.741837 97.953918,102.342873 102.721153,102.699677 
	C107.191635,103.034264 109.107941,105.749367 109.367584,109.962700 
	C109.398293,110.460899 109.429443,110.962883 109.516327,111.453209 
	C110.266235,115.685287 111.864815,119.318542 116.862274,119.473289 
	C120.685234,119.591675 123.563751,115.777657 123.595062,110.422859 
	C123.695465,93.257423 123.600204,76.090912 123.664093,58.925133 
	C123.678192,55.136501 122.034950,52.618980 118.719902,50.973999 
	C117.244995,50.242130 115.471016,49.487816 115.923096,47.365402 
	C116.422318,45.021603 118.508545,45.672775 120.035042,45.659153 
	C129.033997,45.578838 138.033813,45.590321 147.033340,45.584129 
	C148.344086,45.583229 149.873840,45.296078 150.592484,46.758717 
	C151.442856,48.489532 150.201111,49.671726 148.999588,50.530998 
	C144.416397,53.808708 143.386536,58.426201 143.438049,63.705589 
	C143.566406,76.860855 143.462753,90.018196 143.541168,103.174179 
	C143.600525,113.134026 140.172852,121.056015 130.511948,125.875259 
z"/>
<path fill="#000000" opacity="1.000000" stroke="none" 
	d="
M376.352081,108.695168 
	C373.236755,104.811668 368.893890,103.878334 364.857910,102.410774 
	C360.331329,100.764816 355.634674,99.583969 351.540710,96.859207 
	C345.866516,93.082726 342.279663,88.002663 342.848145,81.061729 
	C343.482178,73.319450 347.615051,67.670708 354.929260,64.694572 
	C362.373077,61.665699 369.892029,62.156319 377.393463,64.592056 
	C379.108795,65.149025 380.762909,66.162521 382.680817,65.357651 
	C386.576080,63.722946 387.833466,65.913918 388.214874,69.239548 
	C388.630890,72.867332 389.022980,76.499878 389.310272,80.139435 
	C389.426514,81.612549 389.507233,83.293549 387.737213,83.978981 
	C385.807983,84.726067 384.576141,83.535400 383.567444,82.110832 
	C380.330322,77.539146 376.599670,73.639000 370.963531,72.025833 
	C368.810242,71.409523 366.731995,71.149124 364.607605,71.927132 
	C361.993591,72.884445 359.800293,74.256355 359.393341,77.357155 
	C358.990845,80.424149 360.516785,82.459259 362.956329,83.949043 
	C368.414062,87.281952 374.707123,88.566238 380.516479,91.038177 
	C390.005188,95.075661 393.814209,101.393188 392.608521,110.986534 
	C391.335632,121.115013 384.181580,127.623245 373.250793,128.308716 
	C366.583466,128.726837 359.887665,128.769409 353.718628,125.564400 
	C351.578522,124.452538 349.974396,125.332184 348.182983,126.388641 
	C345.921844,127.722137 344.208099,126.954330 343.815765,124.363350 
	C342.995544,118.946716 342.333984,113.504379 341.710541,108.060776 
	C341.541992,106.589050 341.511932,104.877281 343.343323,104.289108 
	C345.076477,103.732475 346.203125,104.911812 347.042786,106.191147 
	C349.433105,109.832954 352.006287,113.293365 355.631287,115.825867 
	C360.517029,119.239174 365.828217,120.744347 371.679291,118.975845 
	C376.758850,117.440514 378.209351,114.273247 376.352081,108.695168 
z"/>
<path fill="#000000" opacity="1.000000" stroke="none" 
	d="
M194.306305,271.665466 
	C196.901962,276.688080 199.325058,281.373016 202.138580,286.812805 
	C206.169846,281.461273 208.195786,276.009460 210.878601,270.950073 
	C212.029358,268.779938 213.229248,267.132996 216.024750,266.914612 
	C221.812241,266.462494 223.130630,267.550140 223.117218,273.413696 
	C223.097382,282.078552 223.131683,290.743866 223.046494,299.408020 
	C223.014679,302.642883 223.739334,306.405792 218.358704,306.274445 
	C213.008453,306.143860 213.968109,302.300934 213.860611,299.136749 
	C213.727600,295.221466 213.828766,291.298187 213.828766,285.988312 
	C209.784943,289.978119 208.637741,293.811462 206.725113,297.145996 
	C205.712479,298.911499 204.933258,300.791138 202.437225,300.715363 
	C199.991745,300.641144 199.162933,298.782196 198.215057,296.992279 
	C196.308472,293.391998 194.349197,289.819611 191.257950,286.524170 
	C191.257950,291.438324 191.181427,296.354095 191.285095,301.266052 
	C191.353088,304.487823 190.333725,306.237396 186.737686,306.234924 
	C183.201965,306.232513 181.567032,305.035034 181.624435,301.288391 
	C181.769897,291.792023 181.629990,282.291595 181.711487,272.793732 
	C181.728683,270.786835 180.783401,267.905823 183.749924,267.350555 
	C186.892059,266.762421 190.436508,265.840820 192.939987,269.136780 
	C193.437332,269.791565 193.740860,270.593628 194.306305,271.665466 
z"/>
<path fill="#000000" opacity="1.000000" stroke="none" 
	d="
M287.078674,218.869568 
	C290.766602,224.234543 294.252411,229.293411 298.265198,235.117035 
	C299.404816,229.105392 298.787964,223.894806 298.822052,218.743530 
	C298.844635,215.329773 299.675995,213.537689 303.582886,213.528854 
	C307.358093,213.520309 308.463684,214.958618 308.397308,218.549484 
	C308.224915,227.873123 308.407654,237.202911 308.295990,246.528397 
	C308.270874,248.628769 309.362000,251.727463 305.883728,252.149216 
	C302.692444,252.536179 299.206787,253.287979 296.906158,249.671570 
	C293.243286,243.913834 289.432648,238.249908 285.661804,232.561356 
	C285.309631,232.030090 284.794983,231.606567 283.342346,230.040375 
	C283.342346,236.596634 283.270203,241.965164 283.370300,247.330505 
	C283.427368,250.386749 282.907471,252.369461 279.089142,252.424530 
	C275.295990,252.479248 274.064087,250.833038 274.070923,247.383072 
	C274.089447,238.057053 273.979401,228.730652 274.024475,219.404922 
	C274.034332,217.367920 273.308380,214.463379 276.111145,213.936539 
	C279.054077,213.383347 282.480804,212.509155 284.824615,215.732101 
	C285.510132,216.674759 286.192688,217.619598 287.078674,218.869568 
z"/>
<path fill="#000000" opacity="1.000000" stroke="none" 
	d="
M162.000137,418.687164 
	C243.312119,418.699768 324.124725,418.632629 404.929260,419.575989 
	C401.711761,423.086639 102.097336,423.225739 98.070107,420.662140 
	C99.144821,417.888428 101.606255,418.721558 103.541328,418.715851 
	C122.860786,418.658661 142.180481,418.684540 162.000137,418.687164 
z"/>
<path fill="#000000" opacity="1.000000" stroke="none" 
	d="
M201.861954,253.165985 
	C187.890121,251.831741 180.662872,242.268082 182.758667,228.480194 
	C184.492004,217.076904 195.522156,210.010712 207.428619,212.670807 
	C210.609970,213.381561 213.454956,214.834137 215.523544,217.308350 
	C216.950027,219.014526 220.004440,221.050659 216.871933,223.457611 
	C214.618469,225.189117 212.092087,227.604736 208.774063,223.896133 
	C205.203766,219.905533 199.578918,220.216919 195.816452,223.758484 
	C191.408615,227.907532 191.116821,235.770981 195.190857,240.616867 
	C198.488525,244.539246 204.207489,245.418076 208.245956,242.612320 
	C209.516266,241.729767 210.545212,240.686874 210.429337,238.881653 
	C209.305878,236.864075 207.258759,237.416687 205.553955,237.435547 
	C202.869644,237.465240 201.605453,236.571121 201.638733,233.686127 
	C201.672592,230.752594 203.255539,230.123795 205.728622,229.880310 
	C219.240433,228.550049 219.377380,228.642258 219.345856,242.106125 
	C219.343903,242.939102 219.343430,243.772125 219.335312,244.605057 
	C219.267944,251.515961 217.832336,252.887543 211.029480,251.750259 
	C207.849838,251.218689 205.257492,253.089767 201.861954,253.165985 
z"/>
<path fill="#000000" opacity="1.000000" stroke="none" 
	d="
M114.320213,212.678116 
	C125.888664,212.619965 132.116974,216.222443 135.566406,224.694321 
	C138.914810,232.918091 137.356903,241.988403 131.220032,247.687943 
	C124.915627,253.543091 117.575020,254.868561 109.534554,251.612320 
	C101.730293,248.451721 98.011154,242.346497 97.651329,234.204315 
	C97.124519,222.283585 102.479050,215.351852 114.320213,212.678116 
M108.588730,238.722198 
	C112.206139,243.827225 116.926086,245.360733 121.779747,243.007965 
	C126.533249,240.703735 128.656693,234.286026 126.641525,228.314102 
	C125.053032,223.606644 120.487907,220.719788 115.846054,221.487366 
	C110.434166,222.382309 107.277145,226.764832 107.338707,233.173264 
	C107.354935,234.862122 107.562859,236.471161 108.588730,238.722198 
z"/>
<path fill="#000000" opacity="1.000000" stroke="none" 
	d="
M173.413391,280.113861 
	C175.564178,288.485626 174.639359,295.963745 168.447128,301.717834 
	C162.773209,306.990356 155.695786,308.054321 148.365891,305.675140 
	C139.279953,302.725952 134.524384,294.425354 135.561096,283.959564 
	C136.486084,274.621643 142.546600,267.792816 150.876343,266.702820 
	C161.983353,265.249390 169.306992,269.491180 173.413391,280.113861 
M153.725128,275.349915 
	C147.284302,276.801056 144.486084,281.027466 145.227402,288.184784 
	C145.820999,293.915955 149.546600,297.629425 154.770126,297.696503 
	C160.051254,297.764282 164.082779,293.669342 164.645782,287.911530 
	C165.288757,281.335632 160.884079,274.791443 153.725128,275.349915 
z"/>
<path fill="#000000" opacity="1.000000" stroke="none" 
	d="
M231.616730,286.034119 
	C231.451584,281.060089 231.283524,276.569794 231.119766,272.079376 
	C230.992584,268.591919 232.487305,266.812958 236.166016,266.991821 
	C240.650482,267.209900 245.189102,266.887329 249.623535,267.443085 
	C259.264740,268.651398 262.331665,275.347229 257.443848,283.854004 
	C257.203369,284.272552 257.111542,284.776489 256.879517,285.445312 
	C260.663147,289.451813 262.476959,294.121552 259.802551,299.429108 
	C257.014862,304.961395 251.737549,305.893555 246.203720,306.006744 
	C243.373123,306.064697 240.540817,306.070129 237.709518,306.054962 
	C231.627350,306.022430 230.935349,305.228455 231.209885,298.994446 
	C231.392960,294.837677 231.483658,290.676819 231.616730,286.034119 
M240.488983,294.658020 
	C240.490967,297.282410 242.158737,297.985779 244.385422,298.009552 
	C246.852554,298.035889 249.445496,298.271332 251.088272,295.882568 
	C251.988052,294.574188 252.097870,292.948242 251.023300,291.738983 
	C248.890854,289.339325 245.887604,289.971313 243.158981,289.967712 
	C240.529129,289.964264 240.809097,292.203430 240.488983,294.658020 
M240.493973,276.572723 
	C240.645172,279.011536 239.192535,282.282257 243.517700,282.589233 
	C245.869446,282.756134 248.260956,282.765625 249.938263,280.722504 
	C250.987122,279.444855 251.093964,277.812164 250.098007,276.552979 
	C248.499268,274.531677 246.128799,274.366302 243.733200,274.590942 
	C242.577316,274.699341 241.372482,274.706909 240.493973,276.572723 
z"/>
<path fill="#000000" opacity="1.000000" stroke="none" 
	d="
M250.576202,179.483704 
	C248.777039,177.991653 248.976532,176.260681 248.971619,174.621933 
	C248.944748,165.643463 248.918915,156.664703 248.975464,147.686554 
	C248.988449,145.623398 248.406067,142.990051 251.310272,142.327423 
	C254.317337,141.641296 257.262756,141.720367 259.268707,144.791122 
	C262.268341,149.383041 265.344086,153.925903 268.437073,158.455750 
	C269.440216,159.924911 270.299164,161.562561 272.670685,162.821762 
	C272.670685,157.173416 272.799683,151.927505 272.623199,146.691879 
	C272.514191,143.459045 273.871399,142.174179 276.979309,142.144730 
	C280.205597,142.114136 281.349457,143.672653 281.316345,146.766937 
	C281.220245,155.744675 281.322021,164.724533 281.226471,173.702286 
	C281.201721,176.026047 282.097198,179.048828 278.473450,179.721069 
	C275.196289,180.329025 272.314972,179.989914 270.286682,176.659286 
	C267.262756,171.693634 263.932220,166.914078 260.703674,162.074341 
	C260.269989,161.424240 259.670471,160.884750 257.925568,160.434189 
	C257.925568,164.811127 257.977905,169.188843 257.913208,173.564819 
	C257.818268,179.983459 257.303162,180.404419 250.576202,179.483704 
z"/>
<path fill="#000000" opacity="1.000000" stroke="none" 
	d="
M104.298416,266.954163 
	C108.910858,267.050140 113.059982,266.770569 117.211044,267.400635 
	C126.577614,268.822266 129.843185,275.091278 125.427742,283.419952 
	C125.122864,283.995026 124.862640,284.593811 124.554329,285.238708 
	C126.282440,287.917603 128.393753,290.229004 128.411530,293.724548 
	C128.443741,300.047729 125.411423,304.121887 119.196091,305.391998 
	C113.755020,306.503876 108.256432,306.028351 102.774506,306.002411 
	C100.583488,305.992035 99.422150,305.019440 99.409607,302.668060 
	C99.354568,292.359375 99.257027,282.050659 99.109474,271.742889 
	C99.062294,268.446381 100.380440,266.696014 104.298416,266.954163 
M114.399551,298.384430 
	C117.284973,297.652618 120.037842,296.593109 119.361198,292.885986 
	C118.787727,289.744110 114.198387,288.777527 108.590553,290.429626 
	C108.309311,292.830780 108.019646,295.258392 108.804466,297.602966 
	C110.386749,298.707825 112.119316,298.104309 114.399551,298.384430 
M114.146591,274.671417 
	C112.117432,274.614471 109.424553,273.477142 108.645363,276.217712 
	C108.094475,278.155304 107.093948,281.278137 109.961472,282.255646 
	C112.703247,283.190247 116.072678,283.371796 117.877258,280.197296 
	C119.668953,277.045471 117.304741,275.807556 114.146591,274.671417 
z"/>
<path fill="#000000" opacity="1.000000" stroke="none" 
	d="
M160.377945,240.873566 
	C155.517151,238.673553 154.505524,239.248932 154.373138,243.938751 
	C154.335526,245.270966 154.277466,246.611847 154.380707,247.936935 
	C154.623978,251.059219 153.462280,252.442078 150.119034,252.423447 
	C146.817398,252.405060 145.108841,251.366196 145.120590,247.890839 
	C145.154984,237.725677 145.148026,227.559967 145.075684,217.395050 
	C145.053574,214.288803 146.528442,213.402725 149.435928,213.555618 
	C153.258728,213.756653 157.102325,213.713135 160.931870,213.600403 
	C167.181747,213.416412 172.058884,215.491501 174.531143,221.595886 
	C176.940643,227.545258 175.762985,232.670853 170.763199,236.828583 
	C170.392700,237.136703 170.136292,237.582031 169.784470,238.015869 
	C170.632797,242.984528 175.115494,246.367218 175.915848,251.367859 
	C168.875641,253.554092 167.091003,252.915390 163.968628,247.264435 
	C162.840576,245.222885 161.706146,243.184860 160.377945,240.873566 
M156.903793,230.940521 
	C158.883316,230.831650 160.907684,230.943497 162.830032,230.553085 
	C164.837112,230.145477 165.794418,228.519333 165.898682,226.496582 
	C166.002136,224.489380 165.244400,222.767990 163.352203,222.038071 
	C160.675201,221.005417 157.192184,220.177322 155.398849,222.364716 
	C153.539200,224.632980 153.077667,228.179260 156.903793,230.940521 
z"/>
<path fill="#000000" opacity="1.000000" stroke="none" 
	d="
M373.443146,179.390533 
	C364.131195,181.831604 356.507507,179.135025 352.180084,172.104858 
	C347.793915,164.979263 348.722168,153.093552 354.162140,146.725449 
	C358.916595,141.159790 368.282715,139.282578 375.784271,142.363358 
	C377.670288,143.137909 379.397461,144.184967 380.637482,145.774231 
	C381.978638,147.493149 384.888458,149.426270 382.620300,151.615829 
	C380.605896,153.560394 377.847931,155.676971 374.405182,152.404373 
	C370.270355,148.473877 365.831635,148.504623 362.281250,151.530273 
	C358.069550,155.119461 357.124084,162.463837 360.212952,167.596939 
	C362.551300,171.482849 367.472961,173.120682 372.031097,171.437424 
	C373.798157,170.784882 375.578857,169.754913 375.353455,167.602875 
	C375.153778,165.696457 373.141998,165.744827 371.753326,165.614502 
	C369.200287,165.374863 367.133423,164.999405 367.354553,161.660400 
	C367.594177,158.042923 370.250977,158.723083 372.473999,158.560699 
	C384.367920,157.691879 384.368042,157.693573 384.345306,169.547791 
	C384.344666,169.880875 384.344269,170.213959 384.343384,170.547043 
	C384.319733,179.534134 384.320221,179.526596 375.243408,178.899185 
	C374.774933,178.866791 374.284760,179.147964 373.443146,179.390533 
z"/>
<path fill="#000000" opacity="1.000000" stroke="none" 
	d="
M341.221741,177.560623 
	C337.167511,181.047989 333.837433,180.775238 331.164124,176.943222 
	C327.281525,171.377731 323.551727,165.705627 319.756775,160.078995 
	C319.282867,160.141739 318.808990,160.204468 318.335083,160.267212 
	C318.335083,164.902084 318.248901,169.539108 318.364044,174.171127 
	C318.447113,177.513519 318.092438,180.116699 313.729523,180.052673 
	C309.451111,179.989868 309.613068,177.226105 309.623108,174.258835 
	C309.652924,165.445572 309.558441,156.631653 309.628754,147.818909 
	C309.644684,145.819626 308.726685,143.094788 311.690277,142.370819 
	C314.653320,141.647034 317.610199,141.579529 319.663055,144.700562 
	C323.580231,150.655930 327.624176,156.527878 332.898438,162.293381 
	C332.898438,157.171341 332.969696,152.047928 332.870972,146.927795 
	C332.814362,143.992386 333.648407,142.137177 336.965637,141.993713 
	C340.017059,141.861755 341.539581,142.727921 341.469421,146.186188 
	C341.260345,156.492325 341.327393,166.804047 341.221741,177.560623 
z"/>
<path fill="#000000" opacity="1.000000" stroke="none" 
	d="
M245.992310,244.301193 
	C241.365692,243.812073 238.462280,244.667984 236.882721,249.419891 
	C235.128952,254.695953 230.658890,251.603439 227.218445,252.028442 
	C226.691467,248.517303 228.381088,246.269119 229.252869,243.825104 
	C232.324265,235.214554 235.632187,226.685211 238.537262,218.020081 
	C239.701614,214.547073 241.634048,213.368179 245.140961,213.567413 
	C248.477219,213.756958 251.542465,213.267426 253.044617,217.644608 
	C256.442261,227.545166 260.380585,237.259445 264.025940,247.076630 
	C264.526337,248.424225 265.406311,249.787720 264.831207,251.363266 
	C258.278625,253.526047 256.407135,253.009460 254.030716,247.273590 
	C252.376556,243.281113 249.218231,244.614059 245.992310,244.301193 
M246.815155,226.465683 
	C246.428940,225.657349 245.709702,224.807495 245.208633,226.063675 
	C244.078598,228.896622 242.530975,231.668518 242.637222,235.260132 
	C244.842087,235.744614 246.851852,236.022934 249.098358,235.104523 
	C249.255783,232.147064 247.855576,229.661118 246.815155,226.465683 
z"/>
<path fill="#000000" opacity="1.000000" stroke="none" 
	d="
M361.644287,253.299698 
	C345.101257,254.939987 335.668823,240.303177 339.863708,226.456589 
	C342.078644,219.145447 347.129456,214.398804 354.579834,213.021179 
	C361.771698,211.691315 368.587097,212.986572 373.583740,219.048676 
	C374.977051,220.739059 377.259766,222.957184 374.327759,224.910019 
	C372.250458,226.293564 369.923553,228.412628 366.925934,225.244812 
	C362.006042,220.045609 355.867859,220.174637 351.710968,224.935135 
	C347.581238,229.664459 348.392761,238.817566 353.269348,242.512497 
	C357.634247,245.819733 363.475403,245.222687 366.276764,240.346771 
	C369.073761,235.478485 371.548279,238.870850 374.037964,239.962265 
	C377.394928,241.433914 375.666473,243.845276 374.503418,245.750259 
	C371.692413,250.354370 367.141968,252.274384 361.644287,253.299698 
z"/>
<path fill="#000000" opacity="1.000000" stroke="none" 
	d="
M295.131042,290.224854 
	C296.755432,298.235718 294.407379,303.250854 288.194702,305.667572 
	C280.331421,308.726318 270.516907,306.274139 267.110748,300.368103 
	C266.173950,298.743774 265.161987,296.951813 267.551239,295.712280 
	C269.621216,294.638397 271.739227,292.412109 274.060547,295.436005 
	C276.314178,298.371735 279.332184,299.367767 282.913055,298.645599 
	C284.457825,298.334106 285.765167,297.556702 286.108429,295.881317 
	C286.464905,294.141510 285.437439,292.881927 284.038849,292.269531 
	C281.463226,291.141785 278.770172,290.273773 276.102997,289.365356 
	C270.132599,287.331787 266.845459,283.388428 266.954559,278.313202 
	C267.067261,273.072601 270.763397,268.669495 276.795044,267.228577 
	C282.794250,265.795380 288.431549,266.634247 292.771851,271.511108 
	C294.019897,272.913452 295.773499,274.843964 293.218231,276.544739 
	C291.322144,277.806732 289.319397,280.339172 286.703552,277.752441 
	C284.966614,276.034851 282.996246,274.865723 280.605377,274.677277 
	C278.861908,274.539886 277.170258,275.201752 276.639709,277.039917 
	C276.058441,279.053772 277.462585,280.128967 279.145447,280.734589 
	C282.116760,281.803925 285.138977,282.731934 288.109772,283.802612 
	C291.182434,284.910034 293.762054,286.637146 295.131042,290.224854 
z"/>
<path fill="#000000" opacity="1.000000" stroke="none" 
	d="
M241.921097,177.323853 
	C238.936890,181.354126 233.877518,181.104019 232.435349,176.753494 
	C230.625961,171.295166 226.566040,172.499069 222.710892,172.232132 
	C219.141556,171.985016 216.696747,172.894943 215.458054,176.640640 
	C213.717453,181.904144 209.755402,179.470108 205.369217,179.395493 
	C207.300430,173.839706 208.934647,169.037613 210.639069,164.260574 
	C212.764221,158.304428 215.138153,152.428970 217.033401,146.401917 
	C218.163330,142.808670 220.409042,141.975113 223.773972,141.956879 
	C227.223648,141.938187 229.254700,143.118073 230.472519,146.536102 
	C234.102417,156.724213 238.029160,166.806564 241.921097,177.323853 
M226.978622,162.596573 
	C226.801666,159.481750 225.336273,156.919739 223.617950,153.763824 
	C222.389816,157.325195 220.723526,159.992584 220.950592,163.230637 
	C223.047516,164.098221 224.902527,164.353943 226.978622,162.596573 
z"/>
<path fill="#000000" opacity="1.000000" stroke="none" 
	d="
M173.123062,150.154510 
	C173.174347,142.089645 173.174881,142.077469 180.514786,142.037766 
	C185.010422,142.013443 189.506683,142.067444 194.001923,142.017426 
	C197.116867,141.982773 198.444077,143.293182 198.399048,146.542404 
	C198.354462,149.758087 196.767761,150.501694 194.010406,150.400314 
	C191.349960,150.302505 188.682388,150.418915 186.018829,150.380066 
	C183.743134,150.346909 182.077881,150.843628 182.171326,153.658432 
	C182.253952,156.146561 183.717529,156.702148 185.810623,156.656021 
	C187.308365,156.623001 188.812973,156.741974 190.305054,156.646072 
	C193.026947,156.471191 194.794678,157.199127 194.907486,160.368256 
	C195.025024,163.669113 193.323563,164.804642 190.351791,164.837692 
	C188.688019,164.856186 187.025208,164.964401 185.362091,165.035461 
	C183.006531,165.136139 182.275986,166.524338 182.308075,168.689926 
	C182.340118,170.853378 183.480560,171.612350 185.463898,171.613251 
	C188.960358,171.614807 192.457748,171.718369 195.952927,171.663345 
	C198.615051,171.621429 199.335144,173.056854 199.379410,175.421951 
	C199.425186,177.865662 199.005600,179.839676 196.045471,179.855820 
	C189.720032,179.890335 183.393967,179.865738 177.068512,179.818405 
	C174.298157,179.797684 173.474075,178.228226 173.470337,175.590607 
	C173.458557,167.271149 173.253250,158.951981 173.123062,150.154510 
z"/>
<path fill="#000000" opacity="1.000000" stroke="none" 
	d="
M130.500580,153.518799 
	C126.916862,155.867630 124.786118,153.826477 122.325928,151.921814 
	C118.686188,149.103973 114.700310,148.767700 110.870110,151.774658 
	C107.179909,154.671692 105.840080,161.710114 108.103493,166.478958 
	C110.055641,170.591995 113.408981,172.121750 117.897095,171.734802 
	C121.564789,171.418610 123.160477,168.603958 125.313416,165.924683 
	C127.871445,166.771088 131.518494,166.809433 131.920181,169.962143 
	C132.365845,173.460220 129.488174,175.989548 126.615143,177.834366 
	C120.681023,181.644714 111.180298,181.265350 105.327095,177.120941 
	C99.394913,172.920639 96.308861,163.429199 98.215248,155.607010 
	C99.930664,148.568375 103.887291,143.573730 111.071526,141.795746 
	C117.966064,140.089462 124.377869,141.233459 129.365936,146.648178 
	C130.947235,148.364761 133.820786,150.365341 130.500580,153.518799 
z"/>
<path fill="#000000" opacity="1.000000" stroke="none" 
	d="
M223.000000,324.820984 
	C243.644653,325.096710 263.796692,324.208679 283.933777,325.241394 
	C284.342834,325.262390 284.707367,326.152191 285.070862,326.609253 
	C283.940338,329.074951 281.859100,328.355194 280.200348,328.356354 
	C221.050827,328.398560 161.901291,328.392822 102.751747,328.388702 
	C101.753258,328.388611 100.752396,328.358063 99.756912,328.284119 
	C98.668892,328.203247 97.758430,327.785767 97.859917,326.505493 
	C97.934013,325.570770 98.638084,325.027985 99.543388,324.963165 
	C101.036308,324.856171 102.537041,324.820312 104.034492,324.820129 
	C143.522995,324.815430 183.011490,324.819122 223.000000,324.820984 
z"/>
<path fill="#000000" opacity="1.000000" stroke="none" 
	d="
M140.121918,144.634293 
	C141.801041,141.351410 144.440262,141.872635 146.815369,142.443741 
	C149.680054,143.132599 149.106583,145.758621 149.142380,147.830414 
	C149.251617,154.151459 149.397034,160.477936 149.241150,166.795212 
	C149.149475,170.509781 150.615524,171.944656 154.255676,171.670547 
	C156.737213,171.483688 159.247772,171.718307 161.738983,171.613342 
	C164.341293,171.503723 165.832825,172.416275 165.980011,175.214447 
	C166.128601,178.039856 165.076859,179.758316 162.110229,179.796143 
	C156.123642,179.872513 150.136002,179.865402 144.148788,179.891174 
	C140.832352,179.905457 139.980652,177.930267 139.997711,175.007721 
	C140.055954,165.026718 140.025803,155.045197 140.121918,144.634293 
z"/>
<path fill="#000000" opacity="1.000000" stroke="none" 
	d="
M322.325409,49.212044 
	C326.632446,45.732193 330.873871,45.703453 335.034576,48.480095 
	C338.951294,51.093933 340.709198,56.780369 338.912903,61.967014 
	C336.429565,69.137390 331.438873,74.448387 325.149475,78.539154 
	C323.554016,79.576881 321.606995,80.149223 320.270538,78.201012 
	C319.029999,76.392593 320.619568,75.162544 321.671051,73.900528 
	C323.049683,72.245865 324.687683,70.723892 325.697662,68.864334 
	C327.359802,65.803978 328.318054,62.982128 323.788177,60.810368 
	C319.761597,58.879917 319.487457,54.857948 322.325409,49.212044 
z"/>
<path fill="#000000" opacity="1.000000" stroke="none" 
	d="
M329.065796,215.273315 
	C329.244232,226.538635 329.215027,237.344070 329.379211,248.146591 
	C329.429626,251.464615 328.031158,252.506973 324.900299,252.414917 
	C321.940277,252.327850 319.644745,252.047134 319.680786,248.202896 
	C319.775787,238.062607 319.619141,227.919678 319.746521,217.780121 
	C319.803436,213.251205 322.860107,212.335037 329.065796,215.273315 
z"/>
<path fill="#000000" opacity="1.000000" stroke="none" 
	d="
M200.330826,393.510559 
	C200.311432,394.909546 200.325211,395.907959 200.272751,396.902863 
	C200.189606,398.479767 199.906265,399.981384 197.881775,400.041138 
	C195.662216,400.106659 195.021790,398.532410 194.987869,396.761871 
	C194.892441,391.779846 194.921555,386.795013 194.937668,381.811432 
	C194.943512,380.002716 195.481201,378.507355 197.590424,378.225128 
	C199.399521,377.983093 200.877838,378.459778 201.769272,380.187958 
	C203.206253,382.973755 204.648560,385.756775 206.561325,389.454926 
	C208.237915,386.222839 209.626465,383.705933 210.861557,381.115875 
	C211.906357,378.924896 213.346542,377.577301 215.921585,378.173218 
	C218.360107,378.737457 218.144913,380.742157 218.155029,382.561066 
	C218.179977,387.047852 218.195526,391.535095 218.159317,396.021698 
	C218.144394,397.870300 218.161484,399.961578 215.543320,399.982635 
	C213.099274,400.002319 212.652817,398.216064 212.669983,396.196716 
	C212.687881,394.090546 212.673981,391.984070 212.673981,389.334961 
	C206.320755,398.919067 206.320755,398.919067 201.098511,389.594818 
	C199.700760,390.547791 200.663712,391.982727 200.330826,393.510559 
z"/>
<path fill="#000000" opacity="1.000000" stroke="none" 
	d="
M294.129700,142.088501 
	C298.279144,141.714615 299.468323,143.483475 299.401428,147.075775 
	C299.228333,156.368622 299.242554,165.668457 299.394135,174.962036 
	C299.448425,178.289429 298.347992,179.880508 294.903076,179.915100 
	C291.178711,179.952499 290.616150,177.816864 290.644714,174.752808 
	C290.731445,165.457581 290.685760,156.160965 290.660004,146.864960 
	C290.653717,144.598373 290.671478,142.424683 294.129700,142.088501 
z"/>
<path fill="#000000" opacity="1.000000" stroke="none" 
	d="
M149.959747,384.274841 
	C150.208389,381.766510 149.388504,379.137482 152.139206,378.276062 
	C155.026947,377.371674 156.236053,379.677979 157.507080,381.672913 
	C158.835403,383.757812 160.223785,385.804443 161.818771,388.220490 
	C164.155945,386.135773 163.437775,383.704407 163.597382,381.571686 
	C163.735077,379.731659 164.037201,378.176300 166.370300,378.358734 
	C168.481934,378.523834 168.466476,380.114197 168.457291,381.663330 
	C168.428680,386.489502 168.428955,391.316071 168.355637,396.141541 
	C168.333603,397.591675 168.585983,399.329926 166.716461,399.918091 
	C164.900513,400.489410 163.449982,399.672913 162.400299,398.197632 
	C160.312332,395.263153 158.273865,392.293427 155.297501,388.021423 
	C155.297501,391.928986 155.316208,394.345459 155.290924,396.761505 
	C155.274109,398.368256 154.935028,399.804718 152.934647,399.932861 
	C150.646164,400.079498 150.095856,398.501709 150.051819,396.717712 
	C149.953278,392.726166 149.984116,388.731445 149.959747,384.274841 
z"/>
<path fill="#000000" opacity="1.000000" stroke="none" 
	d="
M360.941711,446.732788 
	C363.095612,449.866333 365.019806,452.685669 367.685486,456.591522 
	C367.872345,452.901001 367.944519,450.631622 368.115936,448.369781 
	C368.242798,446.695953 368.359131,444.875916 370.680176,444.808167 
	C373.049713,444.738983 373.249725,446.478302 373.258362,448.218292 
	C373.282318,453.040680 373.283722,457.863586 373.236755,462.685730 
	C373.222321,464.167236 373.263733,465.789795 371.269745,466.202179 
	C369.490753,466.570099 367.957336,466.186127 366.886017,464.619324 
	C365.021088,461.891907 363.180908,459.147491 361.029053,455.964508 
	C359.737274,458.160065 360.226715,460.127075 360.012726,461.958099 
	C359.786621,463.892944 360.007935,466.279480 357.039673,466.182190 
	C354.240753,466.090363 354.730835,463.794525 354.695587,462.082001 
	C354.606659,457.759857 354.616302,453.433990 354.688477,449.111328 
	C354.712097,447.695801 354.194794,445.885956 355.864441,445.093689 
	C357.707092,444.219299 359.435699,444.729401 360.941711,446.732788 
z"/>
<path fill="#000000" opacity="1.000000" stroke="none" 
	d="
M141.649384,455.972351 
	C142.232376,447.818268 147.075272,443.252930 153.700302,444.180450 
	C160.625717,445.149994 164.776474,451.527466 163.068527,458.574402 
	C161.524216,464.946198 155.058167,468.453674 148.637787,466.245239 
	C144.037521,464.662811 141.706589,461.298004 141.649384,455.972351 
M148.006836,451.737671 
	C147.107635,453.237091 147.027542,454.881287 147.259247,456.540588 
	C147.705551,459.737183 149.368713,461.769257 152.804886,461.616760 
	C156.093658,461.470795 157.260788,459.151947 157.587860,456.292969 
	C157.866241,453.859650 157.303970,451.543457 155.175186,450.150360 
	C152.797333,448.594238 150.457367,449.091125 148.006836,451.737671 
z"/>
<path fill="#000000" opacity="1.000000" stroke="none" 
	d="
M152.010254,366.420471 
	C145.797379,363.196350 143.491974,358.209015 145.206497,352.429688 
	C146.759995,347.193176 151.124664,343.988800 156.279999,344.299896 
	C163.415085,344.730530 167.584000,350.579895 166.370941,358.458374 
	C165.417618,364.649963 159.436523,368.103973 152.010254,366.420471 
M160.910065,356.344086 
	C161.027557,353.487854 160.268814,351.037720 157.467209,349.767151 
	C155.843948,349.030975 154.162476,349.278870 152.792694,350.434052 
	C150.369095,352.478027 149.828201,355.205200 150.676346,358.099426 
	C151.333023,360.340332 153.016449,361.700623 155.454163,361.796417 
	C158.666626,361.922638 160.342850,360.203461 160.910065,356.344086 
z"/>
<path fill="#000000" opacity="1.000000" stroke="none" 
	d="
M185.626053,399.085022 
	C184.604187,399.416473 183.971054,399.632050 183.321655,399.772278 
	C174.720169,401.629791 173.229736,400.475708 173.089050,391.857635 
	C173.061890,390.193604 172.810043,388.486664 173.090607,386.874115 
	C173.625580,383.799255 171.116776,379.393036 176.296127,378.183899 
	C182.457001,376.745544 188.639496,379.652374 190.540817,384.588928 
	C192.746811,390.316528 191.268967,394.992676 185.626053,399.085022 
M184.538300,385.122742 
	C183.171921,383.701050 181.430664,382.653595 179.677185,383.821106 
	C177.324478,385.387543 178.548065,388.096039 178.424133,390.307434 
	C178.318237,392.197144 177.894760,394.617035 180.969147,394.730286 
	C183.778366,394.833801 185.276077,393.257019 185.629791,390.580170 
	C185.847824,388.929962 185.898453,387.255035 184.538300,385.122742 
z"/>
<path fill="#000000" opacity="1.000000" stroke="none" 
	d="
M245.516144,398.262207 
	C245.245071,392.705627 245.140442,387.563507 245.025055,382.421631 
	C244.954056,379.258179 246.546890,378.088715 249.636841,378.011169 
	C257.590057,377.811737 262.539581,381.061981 263.257660,387.395569 
	C263.731781,391.577698 263.013092,395.717224 259.183350,397.945770 
	C255.009933,400.374237 250.350159,401.717346 245.516144,398.262207 
M254.116486,394.651398 
	C258.358398,393.203156 258.323181,389.781647 257.270111,386.547638 
	C256.448578,384.024597 254.144989,382.357544 251.388657,384.064575 
	C248.902740,385.604095 250.471451,393.366394 254.116486,394.651398 
z"/>
<path fill="#000000" opacity="1.000000" stroke="none" 
	d="
M229.111954,351.956238 
	C230.876938,356.778534 233.088181,361.041473 233.993195,365.769592 
	C231.528854,367.262268 229.869843,366.672272 228.183960,364.790680 
	C225.122131,361.373413 221.626282,361.286560 218.761276,364.764496 
	C217.130157,366.744568 215.579285,366.753876 212.774445,365.645966 
	C215.149094,359.218964 217.329559,352.701569 219.998474,346.390808 
	C221.099213,343.788086 225.553101,344.001404 226.974976,346.518799 
	C227.860062,348.085754 228.323959,349.890686 229.111954,351.956238 
z"/>
<path fill="#000000" opacity="1.000000" stroke="none" 
	d="
M127.716293,460.067505 
	C125.912292,460.916138 126.420586,462.402985 126.310806,463.653320 
	C126.178154,465.164062 125.697983,466.189331 123.976944,466.248413 
	C122.421989,466.301788 121.156403,465.652405 121.123367,464.131439 
	C120.997299,458.329590 121.063828,452.523102 121.110886,446.718811 
	C121.114441,446.280701 121.430664,445.575043 121.769196,445.450928 
	C125.794830,443.974518 129.946335,444.035431 133.859253,445.523438 
	C137.419098,446.877167 138.503494,450.640259 137.194351,453.436127 
	C135.117401,457.871826 134.583099,461.661346 138.493744,465.311005 
	C134.602310,467.028809 132.494217,466.161316 130.934738,463.385620 
	C130.217102,462.108276 129.508575,460.727539 127.716293,460.067505 
M131.849350,450.955292 
	C130.229675,448.986511 128.349136,448.388672 126.671097,450.638153 
	C125.925957,451.637054 126.024651,453.446503 127.430267,454.063049 
	C129.801208,455.102997 131.542282,454.302246 131.849350,450.955292 
z"/>
<path fill="#000000" opacity="1.000000" stroke="none" 
	d="
M234.136398,378.709412 
	C237.154495,385.633453 239.849442,392.333954 242.524841,398.985779 
	C239.562134,400.645142 237.935104,400.222443 236.317642,398.086273 
	C233.552139,394.433838 229.867691,394.559387 226.855957,398.278381 
	C225.506897,399.944244 224.080185,400.485229 221.595444,399.272400 
	C222.650040,392.327637 225.568100,385.887360 228.424850,379.494232 
	C229.325241,377.479248 231.806137,377.803558 234.136398,378.709412 
z"/>
<path fill="#000000" opacity="1.000000" stroke="none" 
	d="
M133.257797,395.896790 
	C131.430222,398.340942 130.273743,401.356873 125.667023,398.928406 
	C128.071869,392.499847 130.184631,385.795197 133.138000,379.483887 
	C134.299545,377.001617 138.095001,377.018768 139.372452,379.486145 
	C142.602234,385.724365 145.043427,392.363251 146.845734,399.495636 
	C141.010361,401.597137 139.166794,392.098572 133.257797,395.896790 
z"/>
<path fill="#000000" opacity="1.000000" stroke="none" 
	d="
M271.148987,347.712372 
	C269.095337,351.571045 264.254517,348.325684 262.133698,351.677429 
	C263.242828,353.597076 264.952087,352.787323 266.302185,353.088135 
	C267.993805,353.465027 268.997925,354.312225 268.907806,356.130127 
	C268.820770,357.886871 267.581512,358.160248 266.150818,358.314026 
	C264.481201,358.493469 262.280975,357.778778 261.858490,360.628601 
	C263.764191,362.582245 266.230988,361.356964 268.402161,361.669128 
	C270.026276,361.902649 271.316315,362.178040 271.417969,364.179169 
	C271.521912,366.225220 270.209412,366.684601 268.607300,366.885040 
	C268.114380,366.946716 267.614258,366.951080 267.117340,366.980286 
	C256.122864,367.626434 255.993835,367.505768 255.968567,356.573914 
	C255.967041,355.910004 255.889236,355.238525 255.962662,354.583496 
	C256.319214,351.403046 254.413528,347.017365 257.567657,345.348755 
	C261.112000,343.473663 265.678009,344.517731 269.793762,344.975342 
	C270.992432,345.108643 271.155334,346.244293 271.148987,347.712372 
z"/>
<path fill="#000000" opacity="1.000000" stroke="none" 
	d="
M116.216568,454.290833 
	C115.729248,463.990662 108.991272,468.805634 100.237953,466.284760 
	C98.110771,465.672150 97.864212,464.186401 97.850082,462.488831 
	C97.811409,457.841156 97.885399,453.192566 97.844048,448.544952 
	C97.820358,445.883026 98.945511,444.782196 101.698143,444.596558 
	C110.461891,444.005646 113.947784,446.132385 116.216568,454.290833 
M103.331009,452.964508 
	C103.332260,454.454041 103.265793,455.947540 103.353416,457.431976 
	C103.444809,458.980530 102.790688,461.002075 105.132370,461.475281 
	C106.902824,461.833069 108.390053,460.953644 109.532021,459.678772 
	C111.845108,457.096344 110.955803,451.639252 107.902695,450.063538 
	C105.671249,448.911865 103.653938,448.815247 103.331009,452.964508 
z"/>
<path fill="#000000" opacity="1.000000" stroke="none" 
	d="
M336.348816,459.897156 
	C336.337524,461.211151 336.333282,462.040497 336.313995,462.869507 
	C336.272888,464.634918 336.039429,466.247467 333.702484,466.257202 
	C331.495361,466.266388 330.908264,464.839203 330.820618,463.004669 
	C330.709076,460.669861 330.977936,458.183228 327.434479,458.159454 
	C324.967346,458.142883 323.221527,458.592255 323.168762,461.605194 
	C323.132782,463.661041 323.444916,466.421936 320.119568,466.133270 
	C316.818237,465.846710 317.798737,462.985229 317.725372,461.051331 
	C317.568237,456.911041 317.664520,452.759796 317.711639,448.613678 
	C317.732635,446.766266 317.703552,444.759247 320.406250,444.804291 
	C322.655914,444.841766 323.119385,446.472137 323.081818,448.230560 
	C323.019684,451.140106 323.730225,452.968597 327.221558,452.899628 
	C330.675049,452.831360 330.763245,450.683990 330.795868,448.224274 
	C330.823181,446.164001 331.456635,444.623199 333.967468,444.815918 
	C336.386658,445.001617 336.272675,446.827606 336.301849,448.465759 
	C336.366791,452.113739 336.338989,455.763367 336.348816,459.897156 
z"/>
<path fill="#000000" opacity="1.000000" stroke="none" 
	d="
M123.153511,382.405701 
	C123.172264,387.342773 123.210487,391.821289 123.185371,396.299438 
	C123.174347,398.265350 122.769592,400.058929 120.205002,399.917206 
	C117.951599,399.792664 117.790497,398.126221 117.650764,396.369904 
	C117.493126,394.388458 118.428276,391.704865 115.044357,391.449554 
	C111.876724,391.210541 108.782639,391.034058 109.591339,395.894287 
	C109.884171,397.654144 109.924316,399.840698 107.251671,399.958405 
	C104.552322,400.077332 104.625221,397.957794 104.617279,396.120209 
	C104.597244,391.475830 104.609451,386.830750 104.675095,382.186859 
	C104.697685,380.589142 104.371277,378.588470 106.813614,378.431213 
	C109.220093,378.276245 109.403175,380.087860 109.319550,381.815948 
	C109.166649,384.975861 110.031387,386.791626 113.744072,386.726196 
	C117.359665,386.662476 117.766518,384.661896 117.677658,381.871735 
	C117.623306,380.165039 117.699463,378.385040 120.082718,378.323059 
	C122.554527,378.258698 123.072296,379.937073 123.153511,382.405701 
z"/>
<path fill="#000000" opacity="1.000000" stroke="none" 
	d="
M202.109299,344.084869 
	C205.856033,344.503784 209.042404,345.198517 210.135300,348.910431 
	C207.548645,353.782532 203.981186,347.493408 201.116180,350.202545 
	C201.269257,352.883118 203.720993,352.681610 205.378510,353.247894 
	C208.858414,354.436798 211.373108,356.446106 211.066269,360.378448 
	C210.769867,364.176758 208.216827,366.257965 204.604309,366.947083 
	C200.710358,367.689880 197.379959,366.576813 194.895844,363.404602 
	C194.257904,362.589935 194.039795,361.570709 194.980667,360.732086 
	C196.223801,359.624237 197.566574,359.261536 199.020065,360.366821 
	C200.830673,361.743713 202.683319,362.620514 204.856033,360.961945 
	C205.042908,358.212646 202.718948,358.236267 201.186203,357.758209 
	C197.575729,356.632141 194.600525,354.942963 194.777313,350.674866 
	C194.952927,346.434845 197.994156,344.815582 202.109299,344.084869 
z"/>
<path fill="#000000" opacity="1.000000" stroke="none" 
	d="
M127.049232,345.839478 
	C134.656250,342.613525 139.615616,344.272644 141.873520,350.518433 
	C140.151428,352.754883 138.422226,352.438080 136.407944,350.766235 
	C133.814026,348.613312 130.970856,348.797974 128.934006,351.365814 
	C126.797966,354.058746 126.583336,357.258514 128.989807,360.048798 
	C131.111191,362.508545 133.738556,362.338531 136.054993,360.416016 
	C138.140427,358.685181 139.841324,358.736877 141.822525,360.823059 
	C141.197815,365.245087 137.664566,366.381256 134.063431,366.921204 
	C129.851624,367.552734 126.178513,366.174896 123.769768,362.409515 
	C120.207291,356.840607 121.291916,350.954834 127.049232,345.839478 
z"/>
<path fill="#000000" opacity="1.000000" stroke="none" 
	d="
M280.890717,395.706970 
	C282.191467,396.535492 282.582367,397.803284 281.994446,398.467896 
	C278.679230,402.215668 274.269958,399.597168 270.384308,400.178314 
	C268.053375,400.526917 267.150604,398.826538 267.129730,396.749756 
	C267.079620,391.770325 267.110291,386.789948 267.120941,381.809967 
	C267.126129,379.375244 268.373566,378.115295 270.800873,378.120087 
	C273.619476,378.125641 276.443634,378.106384 279.254303,378.278229 
	C280.905151,378.379181 282.095520,379.253510 281.914948,381.172485 
	C281.750610,382.919342 280.434082,383.055969 279.054260,383.280487 
	C276.918335,383.627960 274.369629,382.321838 272.656891,384.698578 
	C273.164886,387.502808 275.445282,386.542999 277.037262,386.887085 
	C278.095154,387.115692 278.963562,387.418488 279.031128,388.666870 
	C279.104675,390.025665 278.532104,390.812317 277.106415,391.052002 
	C275.452484,391.330048 272.622467,390.551575 272.791290,393.086792 
	C272.984924,395.995117 276.140198,394.930206 278.052094,395.444763 
	C278.832184,395.654755 279.700378,395.537354 280.890717,395.706970 
z"/>
<path fill="#000000" opacity="1.000000" stroke="none" 
	d="
M301.908173,466.373566 
	C300.529480,465.696655 299.420807,465.239746 298.566010,464.492432 
	C297.604828,463.652100 296.323853,462.618774 297.278503,461.131653 
	C298.213928,459.674469 299.691833,459.447968 301.212616,460.333038 
	C303.221069,461.502014 305.197845,462.725128 307.408936,460.689484 
	C306.656311,458.104126 304.415222,457.968750 302.642517,457.307770 
	C299.607391,456.176086 297.230591,454.492523 297.173218,450.973877 
	C297.125580,448.051392 298.613953,445.963898 301.331146,444.721954 
	C304.743011,443.162506 307.835541,443.753967 310.669342,445.993225 
	C311.726746,446.828735 312.729767,447.972321 311.736206,449.405212 
	C310.851532,450.681061 309.455780,450.731079 308.168945,450.018341 
	C306.552032,449.122711 305.013336,447.986847 303.037445,450.596161 
	C306.648193,454.364502 316.765533,453.990387 312.304779,463.038208 
	C310.348114,467.006989 306.353149,467.411865 301.908173,466.373566 
z"/>
<path fill="#000000" opacity="1.000000" stroke="none" 
	d="
M110.000061,360.754272 
	C112.188271,362.235229 114.406517,361.464966 116.523895,361.678925 
	C118.147591,361.843018 119.550735,362.105499 119.576942,364.136566 
	C119.598816,365.831726 118.474609,366.446808 117.028160,366.624115 
	C113.710876,367.030762 110.397079,367.009491 107.073715,366.577332 
	C105.168716,366.329590 104.626694,365.245270 104.641136,363.501862 
	C104.682495,358.507538 104.723267,353.511353 104.626541,348.518555 
	C104.573189,345.764526 105.723442,344.557434 108.474487,344.663269 
	C110.968094,344.759186 113.469131,344.648193 115.964607,344.714386 
	C117.482529,344.754608 119.081589,344.844849 119.111633,347.000397 
	C119.141579,349.149292 117.592918,349.172089 116.051392,349.373749 
	C113.839012,349.663116 110.996284,348.392090 109.700302,351.384308 
	C110.856255,353.667511 112.787987,352.837708 114.296967,353.177979 
	C115.813889,353.519989 116.659355,354.333008 116.638107,355.910461 
	C116.615196,357.610443 115.544762,358.066254 114.034645,358.273987 
	C112.427704,358.495026 110.072586,357.522461 110.000061,360.754272 
z"/>
<path fill="#000000" opacity="1.000000" stroke="none" 
	d="
M388.438599,461.744629 
	C389.832825,461.784698 390.830048,461.782837 391.822571,461.850250 
	C393.306274,461.951080 394.381989,462.558594 394.440491,464.231598 
	C394.506714,466.124329 393.147705,466.339996 391.765289,466.364624 
	C388.944550,466.414886 386.121857,466.350708 383.300995,466.396637 
	C380.744354,466.438232 379.746307,465.112823 379.759186,462.694855 
	C379.784821,457.881439 379.800446,453.067200 379.740082,448.254303 
	C379.708435,445.729645 380.860962,444.626923 383.353088,444.680298 
	C386.007599,444.737213 388.664520,444.671875 391.320282,444.683350 
	C392.888397,444.690125 394.397156,444.779510 394.316742,446.991638 
	C394.241302,449.067108 392.829956,449.169800 391.241364,449.376007 
	C389.283997,449.630127 386.830261,448.540955 385.587433,451.008545 
	C385.768463,452.472748 386.746735,452.619385 387.775116,452.743408 
	C389.518860,452.953735 391.754272,452.550140 391.982330,455.155792 
	C392.215973,457.825470 389.994659,457.764648 388.239777,458.082825 
	C387.087982,458.291656 385.755157,458.346436 385.655457,459.862061 
	C385.550293,461.460419 386.837494,461.620239 388.438599,461.744629 
z"/>
<path fill="#000000" opacity="1.000000" stroke="none" 
	d="
M169.220062,445.350159 
	C172.143356,444.928711 174.787201,444.617981 177.414276,444.723633 
	C181.949860,444.906097 184.423721,447.630432 184.741882,451.972168 
	C185.049637,456.171906 182.938721,458.941132 178.662750,459.691223 
	C175.843491,460.185760 172.943161,460.323395 173.164078,464.430206 
	C173.241898,465.876801 171.922867,466.245941 170.659668,466.166016 
	C168.664108,466.039673 168.347839,464.462585 168.229950,462.973206 
	C167.770996,457.175507 168.130325,451.400360 169.220062,445.350159 
M179.430145,451.777893 
	C177.619675,449.043152 175.594818,447.820038 173.582016,451.448486 
	C172.995178,452.506378 173.010788,454.390198 174.505539,454.938934 
	C176.809540,455.784760 178.738800,455.096863 179.430145,451.777893 
z"/>
<path fill="#000000" opacity="1.000000" stroke="none" 
	d="
M239.307220,458.413574 
	C241.320084,455.554718 243.109741,452.985474 244.954086,450.337708 
	C242.961960,448.709503 240.869461,449.670410 239.007431,449.273590 
	C237.693192,448.993500 236.898621,448.467987 236.878891,447.035858 
	C236.858887,445.584473 237.653656,444.834259 238.983810,444.806946 
	C242.798218,444.728638 246.640396,444.472137 250.422974,444.818115 
	C253.999664,445.145264 253.043411,447.675232 251.836594,449.564697 
	C249.377609,453.414673 246.673325,457.107971 243.987930,460.984467 
	C246.415863,462.181610 248.437042,461.508026 250.364105,461.773132 
	C251.724731,461.960358 253.050583,462.107391 253.126129,463.934601 
	C253.198013,465.673340 252.162430,466.328217 250.660446,466.344879 
	C246.682388,466.389008 242.699310,466.460541 238.726364,466.308350 
	C236.169037,466.210388 235.716324,464.505035 236.662231,462.462280 
	C237.282532,461.122711 238.264175,459.950409 239.307220,458.413574 
z"/>
<path fill="#000000" opacity="1.000000" stroke="none" 
	d="
M257.858276,461.325836 
	C260.358551,457.410004 263.437653,454.328003 265.140503,450.304871 
	C263.407227,448.808746 261.477051,449.621460 259.755768,449.299988 
	C258.472900,449.060394 257.545380,448.572845 257.483398,447.152100 
	C257.410095,445.470154 258.393982,444.710388 259.940155,444.731445 
	C264.208893,444.789520 268.516632,444.173340 273.149109,445.292358 
	C273.060608,451.964630 266.850433,455.271606 265.048096,460.871338 
	C266.289764,462.442963 268.071075,461.583771 269.614258,461.754730 
	C271.388794,461.951355 273.645508,461.570831 273.620941,464.255829 
	C273.598358,466.719818 271.431854,466.324188 269.876373,466.368042 
	C266.728821,466.456879 263.576691,466.384094 260.426453,466.375732 
	C256.847015,466.366241 255.963837,464.770477 257.858276,461.325836 
z"/>
<path fill="#000000" opacity="1.000000" stroke="none" 
	d="
M243.229370,361.408691 
	C242.909164,363.902588 243.190369,366.550201 239.889862,366.176910 
	C236.885223,365.837128 237.738373,363.261078 237.685730,361.466400 
	C237.559494,357.162476 237.730515,352.850464 237.643448,348.544525 
	C237.589111,345.857300 238.617203,344.548828 241.414352,344.661438 
	C244.061005,344.767944 246.715286,344.672668 249.365891,344.698700 
	C250.937851,344.714111 252.413208,344.899353 252.456039,347.010895 
	C252.495102,348.936707 251.243988,349.446259 249.663147,349.861481 
	C247.667755,350.385620 244.850861,349.249359 243.931671,352.174072 
	C244.773849,354.008453 246.284103,353.599091 247.521454,353.775391 
	C248.954239,353.979584 250.139297,354.323120 250.075302,356.117218 
	C250.011734,357.899506 248.770782,358.220795 247.360443,358.323578 
	C245.498032,358.459290 243.611359,358.541382 243.229370,361.408691 
z"/>
<path fill="#000000" opacity="1.000000" stroke="none" 
	d="
M211.317551,463.169861 
	C211.246704,465.410187 210.407257,466.377533 208.502167,466.194427 
	C206.801208,466.030975 206.293274,464.782776 206.268204,463.398895 
	C206.175110,458.258179 206.144211,453.115234 206.180481,447.973785 
	C206.195694,445.816315 207.304367,444.622925 209.609192,444.678619 
	C211.931229,444.734772 214.257523,444.624786 216.579025,444.690796 
	C218.209534,444.737122 220.116074,444.582733 220.119308,447.072235 
	C220.122086,449.200104 218.509720,449.170898 217.002640,449.419647 
	C215.183044,449.720001 212.888809,449.265320 212.154007,451.991425 
	C212.552795,452.304840 212.876068,452.682739 213.286087,452.859802 
	C215.066528,453.628632 218.097931,452.558289 218.150711,455.855621 
	C218.201324,459.016357 215.475784,458.085938 213.723328,458.457642 
	C211.230988,458.986298 211.449005,460.936829 211.317551,463.169861 
z"/>
<path fill="#000000" opacity="1.000000" stroke="none" 
	d="
M207.361893,192.666168 
	C207.579269,193.847412 208.064987,194.910614 207.723404,195.439041 
	C205.541855,198.813965 205.970825,202.157272 207.840088,205.454147 
	C202.700241,207.989777 203.048660,201.793213 200.207169,201.092224 
	C198.948059,201.733734 199.306107,202.892151 199.061768,203.793076 
	C198.729263,205.019073 198.227478,206.022980 196.753006,205.870682 
	C195.293030,205.719894 194.873001,204.593185 194.863937,203.370667 
	C194.835617,199.554428 194.794769,195.733810 194.943192,191.922073 
	C195.077103,188.483521 197.779678,188.774780 200.078842,188.802567 
	C202.978699,188.837585 205.744934,189.322159 207.361893,192.666168 
z"/>
<path fill="#000000" opacity="1.000000" stroke="none" 
	d="
M217.671478,205.742310 
	C213.502625,203.395538 212.132431,199.982925 212.839844,195.848694 
	C213.448471,192.291748 215.628799,189.686630 219.245590,188.964676 
	C222.929962,188.229233 226.129044,189.131729 227.776031,193.001358 
	C226.260803,195.226990 224.702652,194.774933 223.015457,193.563004 
	C221.354782,192.370132 219.831696,192.878174 218.553055,194.211945 
	C216.832504,196.006638 216.787277,198.165100 217.850021,200.223907 
	C218.812317,202.088135 220.390030,202.819672 222.567627,201.458847 
	C222.740784,199.916534 219.175873,198.953400 221.464432,197.177170 
	C223.065094,195.934845 225.254990,195.777039 227.198822,196.438538 
	C229.189011,197.115829 229.047623,198.941559 228.870712,200.655685 
	C228.323242,205.960068 226.459808,206.868332 217.671478,205.742310 
z"/>
<path fill="#000000" opacity="1.000000" stroke="none" 
	d="
M258.303284,203.070816 
	C258.125732,204.712662 257.736450,205.807892 256.173645,205.566513 
	C254.944641,205.376694 254.706451,204.312302 254.689163,203.305847 
	C254.620850,199.330612 254.435791,195.344696 254.645767,191.381378 
	C254.811661,188.250580 256.663605,188.363052 258.690735,189.958847 
	C260.749390,191.579483 261.349091,194.519592 263.756683,195.844620 
	C265.016113,195.162582 264.506256,194.035431 264.642334,193.120010 
	C264.869934,191.588959 264.243927,189.405121 266.845337,189.544785 
	C268.840210,189.651917 268.888031,191.471603 268.937714,192.940918 
	C269.044128,196.086151 269.061005,199.236313 269.027435,202.383530 
	C269.011414,203.884048 268.896851,205.495819 267.020538,205.929337 
	C265.250244,206.338364 264.322632,205.104446 263.414459,203.865799 
	C262.058502,202.016373 260.654785,200.201935 259.193878,198.270157 
	C257.780060,199.736740 258.588867,201.304779 258.303284,203.070816 
z"/>
<path fill="#000000" opacity="1.000000" stroke="none" 
	d="
M184.897995,189.701569 
	C191.177811,194.528992 191.200348,202.386597 185.257370,205.353958 
	C181.599594,207.180313 178.038910,206.691864 175.233185,203.763824 
	C172.108047,200.502441 171.920761,196.513306 174.223145,192.781296 
	C176.595978,188.935120 180.188416,187.754837 184.897995,189.701569 
M177.325027,197.537003 
	C177.504288,200.313538 178.643524,202.480331 181.713898,202.233139 
	C183.773849,202.067276 185.272095,200.485992 185.524033,198.293884 
	C185.792618,195.957108 184.879044,193.947266 182.579163,193.208008 
	C179.503723,192.219437 178.087769,194.145538 177.325027,197.537003 
z"/>
<path fill="#000000" opacity="1.000000" stroke="none" 
	d="
M234.362152,205.923340 
	C233.142578,199.671585 236.582306,194.793900 239.127594,189.814209 
	C240.148453,187.817001 242.933029,188.568237 243.905045,190.778473 
	C245.952255,195.433640 248.084503,200.095459 249.366974,206.657700 
	C243.977570,203.436325 239.119324,200.891586 234.362152,205.923340 
z"/>
<path fill="#000000" opacity="1.000000" stroke="none" 
	d="
M296.673706,205.274719 
	C289.981689,207.241943 285.955444,205.450241 284.535278,200.195526 
	C283.125214,194.978043 285.345337,190.524734 290.101898,189.085281 
	C292.251526,188.434738 294.393219,188.503357 296.346069,189.666214 
	C297.862518,190.569244 300.056091,191.542664 298.893921,193.726822 
	C297.867737,195.655380 296.130829,194.576080 294.607300,193.720627 
	C292.626862,192.608566 290.706238,192.894272 289.359070,194.831451 
	C288.132446,196.595276 287.852753,198.544296 289.285767,200.352905 
	C290.846466,202.322678 292.719452,202.845215 294.881165,201.190399 
	C296.202240,200.179108 297.875977,199.718369 298.853271,201.163177 
	C300.113922,203.026917 298.317139,204.089355 296.673706,205.274719 
z"/>
<path fill="#000000" opacity="1.000000" stroke="none" 
	d="
M342.665802,461.678162 
	C342.676697,456.755951 342.675018,452.295441 342.714661,447.835358 
	C342.728851,446.236664 343.073181,444.878693 345.126648,444.804779 
	C347.276581,444.727417 348.122467,445.884277 348.138428,447.822693 
	C348.177826,452.612885 348.214966,457.404083 348.153137,462.193604 
	C348.127960,464.145477 348.267242,466.521820 345.360382,466.499939 
	C342.414276,466.477753 342.795959,464.078400 342.665802,461.678162 
z"/>
<path fill="#000000" opacity="1.000000" stroke="none" 
	d="
M231.241852,456.963928 
	C231.185623,459.610107 231.195511,461.773804 231.046036,463.926483 
	C230.936752,465.500061 229.929565,466.252625 228.358444,466.236725 
	C226.757721,466.220551 225.829285,465.386322 225.815475,463.814148 
	C225.767334,458.330383 225.778198,452.845947 225.802917,447.361908 
	C225.809860,445.824158 226.522171,444.861572 228.201752,444.822205 
	C230.057068,444.778809 231.021164,445.755981 231.091080,447.504944 
	C231.210571,450.492737 231.197205,453.485870 231.241852,456.963928 
z"/>
<path fill="#000000" opacity="1.000000" stroke="none" 
	d="
M386.306641,274.557495 
	C387.236572,273.445435 387.704926,272.260376 389.849854,272.137787 
	C386.045624,280.170837 382.406860,287.854492 378.470612,296.166321 
	C375.154938,291.819305 374.725098,287.574738 374.436096,283.178864 
	C376.504822,282.995636 376.391998,285.770416 378.994324,285.191620 
	C381.857727,282.590424 383.060364,278.017273 386.306641,274.557495 
z"/>
<path fill="#000000" opacity="1.000000" stroke="none" 
	d="
M324.249817,287.102936 
	C323.222382,292.692352 320.478271,295.050873 316.807709,293.554840 
	C313.871704,292.358215 310.929688,290.688690 311.423096,286.765320 
	C311.822662,283.587982 313.908051,281.744202 317.092804,281.492249 
	C320.866333,281.193695 323.516815,282.677307 324.249817,287.102936 
M319.982849,286.328308 
	C317.990692,284.679352 316.310242,284.868011 315.395477,287.384796 
	C314.893677,288.765503 315.454010,290.264008 316.997192,290.463654 
	C319.466492,290.783203 320.645081,289.426208 319.982849,286.328308 
z"/>
<path fill="#000000" opacity="1.000000" stroke="none" 
	d="
M278.646973,189.947266 
	C279.769165,194.357010 279.223175,198.498550 279.297485,202.620407 
	C279.321167,203.933655 279.266876,205.584473 277.441193,205.518463 
	C275.658020,205.453995 275.706146,203.803391 275.690308,202.489426 
	C275.650391,199.180710 275.631866,195.870544 275.687653,192.562347 
	C275.715912,190.885666 275.696838,189.004715 278.646973,189.947266 
z"/>
<path fill="#000000" opacity="1.000000" stroke="none" 
	d="
M399.542542,461.499817 
	C402.182098,460.349640 404.163300,460.402863 404.357513,463.529602 
	C404.462891,465.226227 403.411072,466.436829 401.651825,466.288971 
	C398.719421,466.042480 398.274811,464.225372 399.542542,461.499817 
z"/>
<path fill="#000000" opacity="1.000000" stroke="none" 
	d="
M192.005920,463.938538 
	C190.564911,466.646851 188.750397,467.103851 186.866028,465.126740 
	C185.705673,463.909271 185.903931,462.193085 187.376907,461.344116 
	C189.740677,459.981781 191.379379,460.918427 192.005920,463.938538 
z"/>
<path fill="#000000" opacity="1.000000" stroke="none" 
	d="
M278.162354,463.129761 
	C279.343048,460.688080 280.836365,460.252747 282.344391,462.182922 
	C283.166534,463.235229 283.265961,464.858154 281.912628,465.621033 
	C279.768188,466.829895 278.614624,465.599854 278.162354,463.129761 
z"/>
<path fill="#000000" opacity="1.000000" stroke="none" 
	d="
M322.600525,268.501099 
	C322.849487,264.640717 324.858673,263.538544 329.000092,264.691315 
	C326.745270,266.449097 325.072296,268.000336 322.600525,268.501099 
z"/>
</svg>